<?xml version="1.0" encoding="utf-8"?>
<!-- Generator: Adobe Illustrator 16.0.0, SVG Export Plug-In . SVG Version: 6.00 Build 0)  -->
<!DOCTYPE svg PUBLIC "-//W3C//DTD SVG 1.1//EN" "http://www.w3.org/Graphics/SVG/1.1/DTD/svg11.dtd">
<svg version="1.1" id="Layer_1" xmlns="http://www.w3.org/2000/svg" xmlns:xlink="http://www.w3.org/1999/xlink" x="0px" y="0px"
	 width="180px" height="170px" viewBox="0 0 180 170" enable-background="new 0 0 180 170" xml:space="preserve">
<g>
	<path fill="#010101" d="M40.863,7.429c1.992-0.18,3.438,1.124,4.651,2.306C55.81,19.763,64.769,31.081,75.103,41.057
		c1.942,1.873,3.656,4.022,5.696,6.013c-0.871,2.881-3.115,4.728-5.126,6.525c-1.099,0.984-2.216,1.957-3.249,3.381
		c1.256,1.083,2.577,2.556,3.926,3.657c-0.429,0.885,0.702,0.313,0.658,0.349c3.55-2.898,7.215-5.265,11.382-7.2
		c4.175,0.617,7.195,2.733,9.564,5.21c0.77-1.05,1.916-1.182,2.901-1.472c1.739-0.511,3.399-1.132,5.274-1.077
		c2.385,1.337,4.483,2.91,5.807,4.796c3.043-2.344,5.836-4.834,9.054-6.897c-0.905-0.526-1.387-1.585-0.924-2.541
		c1.4-2.898,4.364-6.017,8.78-4.633c1.596,0.5,3.568,0.956,4.637,2.148c2.275,2.538,1.582,8.751-1.038,10.441
		c-1.808,1.167-5.215,1.177-6.915-0.234c-3.147,2.745-5.631,6.16-8.51,9.103c2.308,2.882,1.426,8.071-0.401,10.806
		c-0.466,0.698-0.436,1.492-0.011,2.209c0.89,1.506,2.014,2.819,2.534,4.332c0.099,2.247-0.397,3.814-0.991,5.148
		c-1.426,3.214-3.277,6.005-5.227,8.872c0.508,1.033,1.723,1.762,2.685,2.271c0.468,0.247,1.558,1.47,2.001,1.894
		c3.342-3.887,6.746-7.81,10.59-11.29c0.41-0.371,1.14-0.294,1.531-0.128c3.201,1.362,5.115,4.314,7.424,6.54
		c9.016,8.694,18.447,17.015,28.26,24.953c2.566,2.076,4.84,4.664,7.947,6.403c-0.169,0.806,1.279,1.283,1.069,1.656
		c-3.829,6.79-8.669,12.177-13.357,17.744c-3.886,4.617-8.323,8.674-12.478,13.022c-5.184-1.983-8.96-5.351-12.977-8.431
		c-11.355-8.709-21.127-19.154-31.1-29.328c-0.33-0.34-0.628-0.867-0.539-1.368c0.047-0.261,0.517-0.437,0.416-0.822
		c-0.098-0.382-0.282-0.87,0.053-1.388c2.609-4.023,5.221-8.13,8.304-11.852c-1.713-0.896-2.761-2.352-4.095-3.824
		c-2.745,3.072-5.898,5.858-8.781,8.852c-0.064,0.068-0.587,0.213-0.136,0.4c0.011,0.92-0.25,1.863-0.95,2.544
		c-0.479,0.466-1.554,0.61-2.401,0.135c-4.476-2.504-8.698-5.539-12.069-9.142c-1.532,1.752-3.679,3.169-6.514,3.184
		c-1.876,0.011-2.953-1.396-4.672-1.692c-3.371-0.581-7.235-0.644-11.197-0.839c0.808,1.16,0.857,3.197-0.354,3.975
		c-1.614,1.039-2.896,2.499-3.568,4.33c3.712,5.835,5.619,17.733,1.97,24.753c-0.548,1.054-0.992,2.185-2.3,3.091
		c-1.599,0.145-2.875-0.97-4.068-1.654c-7.914-4.543-15.371-9.493-21.927-15.359c-1.416,1.945-3.104,3.574-4.945,5.508
		c3.201,2.106,5.212,7.33,3.184,11.968c-1.263,2.888-5.242,5.268-8.963,3.519c-2.83-1.328-6.073-2.898-6.133-6.857
		c-0.079-5.203,2.848-8.611,7.791-9.443c0.536-0.09,1.314-0.228,1.7-0.637l5.569-5.934c-3.608-3.681-6.982-7.565-9.776-11.89
		c-1.884-2.915-4.124-6.207-3.304-11.069c0.097-0.58,0.727-0.951,1.325-1.317c2.462-1.502,5.831-2.603,10.015-2.458
		c0.027,0.117,0.23,0.624,0.451,0.086c4.698,0.563,8.642,2.241,11.704,4.273c2.513-3.511,6.043-5.445,10.381-6.51l3.169,2.609
		c3.627-1.26,8.109-1.395,12.548-1.396c1.058-0.001,2.298-0.033,3.422-0.217c0.769-1.466,2.425-2.162,4.115-3.236
		c-3.764-2.941-6.714-6.688-9.132-10.709c-1.184-1.972-2.893-3.676-2.915-6.6c-0.01-1.39,1.257-2.524,2.085-3.074
		c1.091-2.175,2.16-4.043,3.445-5.725l2.734-2.77c-0.836-1.401-2.023-2.551-3.138-3.825c-3.673,4.175-7.624,8.161-11.755,11.878
		c-0.198,0.179-0.294,0.536-0.658,0.432c-0.251-0.071-1.061-0.138-1.134-0.199c-7.619-6.532-15.736-12.439-22.829-19.312
		c-7.342-7.113-14.991-13.856-22.222-21.374c4.195-5.446,9.951-9.39,15.152-13.864c5.13-4.412,10.265-8.766,16.142-12.405
		C40.039,7.877,40.426,7.468,40.863,7.429z"/>
	<path fill="#CDCCCC" d="M88.743,57.005c4.18,1.075,7.175,3.695,9.914,6.401c6.768,6.687,12.667,14.253,17.32,23.676
		c-0.719,3.822-2.971,6.849-4.813,10.036c-1.59,2.751-3.486,5.055-5.449,7.391c-2.115,2.522-4.612,4.751-7.014,6.892
		c-4.449-8.032-10.095-15.042-16.082-21.582c-4.689-5.119-8.851-10.813-15.712-14.01c0.101-0.611,0.936-2.288,1.424-2.473
		c2.674,0.906,4.824,2.145,6.747,3.301c0.418,0.252,0.854-0.572,0.66-0.979c-0.281-0.587-1.161-0.824-0.955-1.417L69.99,71.11
		c0.369-0.364,0.938-1.309,1.238-1.21c2.862,0.941,4.991,2.773,6.883,4.781c0.263,0.279,1.023,0.42,1.121-0.043
		c0.074-0.349-0.083-1.622-0.269-1.824c-1.665-1.803-3.513-3.722-5.717-4.878c0.509-0.637,1.143-1.27,1.896-1.869
		c-0.286,0.616,0.16,0.76,0.425,0.919c2.544,1.523,5.043,2.989,7.218,4.78c0.336,0.278,0.858,0.717,1.272,0.388
		c0.394-0.313,0.465-1.354-0.11-1.962c-1.835-1.952-4.291-3.659-6.672-5.488c0.197-0.675,1.089-1.143,1.279-0.999
		c2.301,1.736,4.487,3.291,6.418,5.225c0.269,0.271,0.896,0.415,1.068-0.021c0.465-1.191-0.241-2.034-0.802-2.677
		c-1.354-1.552-2.884-2.936-4.478-4.199c0.564-0.394,1.304-1.379,1.599-1c1.627,2.085,3.416,3.944,5.663,5.286
		c0.528,0.315,0.922-0.517,0.811-0.818c-0.853-2.295-2.555-4.093-4.198-5.803c-0.375-0.391,0.555-0.864,0.99-1.092L88.743,57.005z"
		/>
	<path fill="#FFFFFF" d="M26.535,103.148c7.931,0.492,13.523,4.322,18.644,8.012c4.656,3.354,8.394,7.668,11.629,11.695
		c1.757,5.135,2.562,11.816,0.951,16.882c-0.301,0.95-0.799-0.449-0.812-0.464c-9.691-12.43-19.708-24.317-31.755-33.979
		c-0.79-0.633-1.911-0.975-2.551-1.807C23.932,103.186,25.229,103.067,26.535,103.148z"/>
	<path fill="#CBEBF7" d="M51.933,37.363l9.801,9.019c-2.558,3.435-5.832,6.26-8.907,9.413c-3.274-3.188-6.413-6.581-9.843-9.739
		C45.862,43.117,48.792,40.156,51.933,37.363z"/>
	<path fill="#939393" d="M65.348,78.078c1.92,0.858,4.002,1.938,5.422,3.291c9.489,9.037,17.957,19.117,25.044,30.539
		c0.481,0.776,0.728,1.797,0.88,3.048c-4.293-2.188-7.734-5.111-10.688-8.627c0.527-1.595,0.876-4.383,0.092-6.16
		c-1.25-2.828-3.256-5.752-6.812-6.508c-1.41,0.088-2.871,0.561-3.849,1.084c-4.496-4.416-8.173-9.597-11.162-15.316
		C64.723,79.029,65.217,78.826,65.348,78.078z"/>
	<path fill="#CBEBF7" d="M133.851,132.143c0.233-0.2,0.683-0.057,0.952,0.172c2.888,2.447,5.618,5.066,8.434,7.612l-9.209,9.817
		c-0.169,0.18,0.089-0.612-0.373-0.39c-2.991-2.284-5.971-4.626-8.465-7.125c2.8-3.308,5.479-6.624,8.479-9.715
		C133.656,132.525,133.758,132.223,133.851,132.143z"/>
	<path fill="#CBEBF7" d="M122.158,120.525c2.646,2.232,5.26,4.756,7.898,7.494c-0.035,0.869-1.154,1.464-1.784,2.119l-7.446,7.625
		c-1.055-0.632-2.002-1.867-2.865-2.734c-1.578-1.584-3.41-2.899-5.041-4.847L122.158,120.525z"/>
	<path fill="#CBEBF7" d="M147.15,143.609c2.879,2.268,5.605,5.034,8.559,7.689l-7.989,8.021c-3.008-1.855-5.89-3.904-9.233-5.781
		C140.981,149.902,143.897,146.73,147.15,143.609z"/>
	<path fill="#CBEBF7" d="M41.313,47.703c0.657,0.328,1.31,0.907,1.874,1.442c2.725,2.581,5.322,5.237,7.905,8.183
		c0.297,0.339-0.735,0.587-1.101,0.91l-5.487,4.861c-0.625,0.53-0.839-0.144-1.028-0.277l-4.188-3.385l-5.742-5.461
		c1.328-0.685,2.916-1.591,3.812-2.74c0.87-0.131,1.554-1.296,2.344-1.938C40.041,49.022,40.946,48.068,41.313,47.703z"/>
	<path fill="#CBEBF7" d="M162.123,125.256c0.652,0.259,1.577,0.945,2.243,1.548l6.329,5.68c-2.264,3.418-4.4,6.901-7.252,9.912
		l-7.67-8.245c-0.799-0.822,0.582-1.414,0.993-1.966l5.128-6.386C161.955,125.723,162.041,125.422,162.123,125.256z"/>
	<path fill="#CBEBF7" d="M148.98,114.142l8.914,7.214c0.272,0.216,0.797,0.542,0.647,0.729l-6.546,8.127
		c-3.023-2.89-6.293-5.596-9.732-8.201C144.586,119.42,146.924,116.918,148.98,114.142z"/>
	<path fill="#CBEBF7" d="M20.908,26.588c2.449,2.262,4.937,4.741,7.319,7.375c-2.38,2.737-4.886,5.412-7.647,8.097l-8.119-7.967
		C14.857,31.222,17.804,28.877,20.908,26.588z"/>
	<path fill="#CBEBF7" d="M141.102,123.352c3.206,2.57,6.531,5.129,9.636,8.156l-4.159,5.037l-2.563,2.663l-8.92-8.489
		C136.961,128.313,138.922,125.744,141.102,123.352z"/>
	<path fill="#CBEBF7" d="M59.739,28.96c1.885,1.83,3.605,4.099,5.311,6.05c1.27,1.453,2.482,2.934,3.946,4.301l-5.616,5.563
		c-3.377-2.842-6.688-5.898-9.965-8.955c1.904-2.032,3.55-4.283,5.413-6.194C59.075,29.471,59.417,29.455,59.739,28.96z"/>
	<path fill="#CBEBF7" d="M150.928,145.43c-0.91-0.828-1.905-1.531-2.934-2.631c1.764-2.695,3.985-5.186,6.432-7.666
		c2.432,2.736,5.26,5.402,8.005,8.27c-1.881,2.264-3.87,4.779-6.069,7.17c-1.777-1.391-3.512-3.045-5.008-4.69l0.027-0.245
		l-0.221-0.221L150.928,145.43z"/>
	<path fill="#CBEBF7" d="M137.133,103.285c2.564,2.231,5.273,4.441,7.725,6.983c0.102,0.106,0.514,0.231,0.289,0.535
		c-1.961,2.667-4.258,5.044-6.463,7.561c-0.119,0.137-0.534-0.001-0.752-0.22l-7.171-7.276
		C132.805,108.441,135.01,105.953,137.133,103.285z"/>
	<path fill="#CBEBF7" d="M31.939,17.227c1.433,2.187,3.626,4.096,5.578,5.904c-2.505,3.199-5.408,6.164-7.831,9.259l-6.962-7.478
		C25.777,22.495,28.588,19.795,31.939,17.227z"/>
	<path fill="#939393" d="M48.125,101.601c0.312-0.117,0.607-0.408,0.698-0.35c4.017,2.588,6.911,6.048,9.897,9.589
		c0.036,0.042,0.158,0.675,0.202,0.863c-1.569,1.043-2.751,2.656-3.465,4.814c-0.002,0.004-0.17,0.406-0.238,0.286
		c-0.95-1.667-2.355-2.908-3.561-4.081c-2.577-2.512-5.663-4.545-8.82-6.474C43.895,104.076,45.905,102.439,48.125,101.601z"/>
	<path fill="#CBEBF7" d="M129.463,112.16c2.649,2.451,5.006,5.338,7.687,7.83c0.095,0.089-0.029,0.469-0.238,0.697l-5.733,6.191
		c-2.559-2.608-5.135-5.235-7.794-7.67C125.451,117.066,127.197,114.539,129.463,112.16z"/>
	<path fill="#56B9E9" d="M103.382,59.887c0.613-0.267,1.552-0.65,2.171-0.225c4.598,3.156,8.338,7.535,10.078,13.496
		c-0.088,1.978-0.682,3.191-1.354,4.822c-3.663-6.421-8.692-11.423-13.495-16.618c-0.088-0.096-0.66-0.484-0.176-0.728
		C101.484,60.191,102.479,60.28,103.382,59.887z"/>
	<path fill="#CBEBF7" d="M42.019,27.992c0.304-0.31,0.479,0.108,0.625,0.248l4.962,5.12c-2.771,2.775-5.225,6.129-8.202,9.216
		c-1.781-1.752-3.359-3.785-5.068-5.626C36.679,33.858,39.25,30.809,42.019,27.992z"/>
	<path fill="#FFFFFF" d="M76.791,97.643c1.186-0.594,2.494-0.338,3.397,0.539c2.211,1.119,4.278,5.098,2.178,7.92
		c-0.99,1.331-2.059,2.729-3.833,3.358c-2.554-0.77-3.982-3.005-4.955-5.311c-0.659-0.796-0.897-2.746-0.546-4.145
		C74.243,99.224,75.42,98.331,76.791,97.643z"/>
	<path fill="#CBEBF7" d="M66.017,50.839c1.502,1.167,3.136,2.719,4.497,4.038l-8.695,9.562c-1.928-1.285-3.422-3.369-5.1-5.093
		L66.017,50.839z"/>
	<path fill="#CBEBF7" d="M32.771,38.408l5.094,5.64c-2.167,2.396-4.684,4.603-7.05,6.819c0.673,0.588-0.196,0.392-0.331,0.255
		c-1.858-1.873-4.005-3.4-5.658-5.142C27.12,42.94,29.602,40.837,32.771,38.408z"/>
	<path fill="#CBEBF7" d="M50.398,18.737c1.893,1.944,3.966,3.896,5.859,6.021l-7.164,6.985l-5.46-5.443
		c1.835-2.248,3.907-4.54,5.918-6.748c0.403,0.2,0.664-0.062,0.494-0.405L50.398,18.737z"/>
	<path fill="#B0B0B0" d="M35.499,124.349c3.801,3.796,8.176,7.146,12.92,9.854c2.679,1.53,4.451,3.923,6.081,6.405
		c0.308,0.47,0.562,0.953,1.178,1.864c-4.331-2.633-7.536-5.704-12.11-7.524c-0.411-0.164-0.973-0.497-1.446-0.857
		c-3.005-2.304-5.966-4.64-8.761-7.256C33.88,126.029,34.622,125.252,35.499,124.349z"/>
	<path fill="#B0B0B0" d="M19.407,107.016c-0.018-0.353,0-1.413,0-1.848c1.79,0.637,3.385,1.564,4.617,2.725
		c-0.852,0.398-0.271,1.232-0.053,1.755c2.202,5.256,6.337,8.696,9.637,12.78c-0.599,1.004-1.367,1.66-2.183,2.442
		c-4.581-5.177-9.391-10.16-11.935-17.401C19.46,107.381,19.411,107.104,19.407,107.016z"/>
	<path fill="#ED2224" d="M21.688,136.813c0.879-0.098,2.057-0.583,2.539-0.128c1.075,1.014,2.17,1.981,2.725,2.858
		c0.475,2.456,0.187,4.943-0.995,6.541c-3.69,0.917-6.641-1.386-7.835-3.824c-0.042-2.899,1.398-4.52,3.275-5.332
		C21.453,136.902,21.627,136.82,21.688,136.813z"/>
	<path fill="#CBEBF7" d="M41.328,10.793c0.167-0.044,0.729-0.028,0.776,0.009c1.58,1.231,3.002,2.516,4.149,3.815
		c-2.967,1.678-4.962,4.494-7.012,7.013c-1.914-1.784-3.765-3.561-5.552-5.746c1.833-1.672,4.224-3.2,6.478-4.515
		C40.39,11.24,41.082,10.86,41.328,10.793z"/>
	<path fill="#CDCCCC" d="M58.294,102.03c3.706,0.007,7.602-0.195,11.73-0.359c-0.052,2.559,1.045,4.36,2.194,6.177
		c-3.475-0.731-7.515-1.082-11.593-0.636c-1.485-1.246-3.113-3.122-4.599-4.84C56.712,102.328,57.383,102.029,58.294,102.03z"/>
	<path fill="#CBEBF7" d="M55.043,60.834l4.989,4.558c0.63,0.59-0.172,0.821-0.323,0.984l-4.783,4.762
		c-0.237,0.227-0.712,0.445-0.848,0.316c-1.656-1.596-3.504-2.917-5.411-4.745c1.91-1.377,3.764-3.082,5.169-4.994
		c-0.125-0.214,0.124-0.54,0.358-0.247C54.511,61.32,54.782,61.234,55.043,60.834z"/>
	<path fill="#CBEBF7" d="M113.883,113.313c1.356,0.777,2.486,2.102,3.645,3.189c-2.404,3.232-5.293,6.07-8.159,9.077
		c-1.03-0.426-1.876-1.536-2.882-1.878C109.263,120.682,111.19,116.772,113.883,113.313z"/>
	<path fill="#56B9E9" d="M125.318,50.435c2.285-0.814,4.765,0.119,5.855,1.637c1.064,1.478,0.727,4.185-0.494,5.234
		c-0.641,0.549-1.559,0.544-2.376,0.223c-2.151-0.849-3.776-2.414-5.083-4.188c-0.42,0.225-0.74,0.034-0.559-0.38
		C123.187,51.768,124.21,50.83,125.318,50.435z"/>
	<path fill="#CBEBF7" d="M129.516,96.243c0.258-0.206,0.553,0.337,0.845,0.571c0.89,0.713,1.602,1.665,2.541,2.27l-5.988,7.297
		c-0.304,0.354-0.544-0.066-0.749-0.282l-2.909-3.053c-0.189-0.199,0.024-0.637,0.241-0.856
		C125.447,100.217,127.175,98.103,129.516,96.243z"/>
	<path fill="#CBEBF7" d="M121.561,104.421c1.324,0.88,2.787,2.141,3.517,3.741c-2.022,2.227-4.23,4.38-6.316,6.837
		c-1.137-0.944-2.331-2.229-3.613-3.142c1.933-2.418,3.988-4.596,6.136-6.884C121.309,104.948,121.434,104.676,121.561,104.421z"/>
	<path fill="#CBEBF7" d="M73.115,43.622c1.267,1.162,2.478,2.746,3.697,4.007c-0.281,0.561-0.719,1.255-1.278,1.762
		c-1.358,1.23-2.933,2.298-3.984,3.797c-1.319-1.208-2.555-2.266-3.693-3.962C69.484,47.536,71.476,45.747,73.115,43.622z"/>
	<path fill="#FFFFFF" d="M118.678,117.909c0.446,0.021,1.254,0.712,2.132,1.117c-2.665,3.492-5.924,6.438-9.086,9.925
		c-0.219,0.24-0.353-0.577-0.477-0.689c-0.438-0.405-0.947-1.101-0.629-1.404c2.75-2.636,5.146-5.582,7.854-8.539
		C118.412,118.386,118.563,118.139,118.678,117.909z"/>
	<path fill="#FFFFFF" d="M122.347,138.897c3.03-3.04,5.913-6.237,9.131-9.262c0.287-0.271,0.806,0.628,1.332,1.105
		c-2.923,3.243-5.927,6.578-8.891,9.655c-0.438,0.455-1.11-0.573-1.552-0.973L122.347,138.897z"/>
	<path fill="#B0B0B0" d="M25.349,108.929c1.13,0.616,2.185,1.559,3.021,2.369c2.786,2.701,5.494,5.441,8.132,8.498
		c0.34,0.394-1.127,0.55-1.697,1.497C31.556,117.349,27.914,113.742,25.349,108.929z"/>
	<path fill="#FFFFFF" d="M39.05,24.755c0.586,0.306,1.069,0.919,1.72,1.609c-2.91,2.815-5.618,5.88-8.052,9.228
		c-0.603-0.443-1.035-0.954-1.635-1.542L39.05,24.755z"/>
	<path fill="#FFFFFF" d="M121.616,57.319c0.298-0.205,1.295,0.998,0.892,1.331c-2.387,1.977-4.266,4.501-6.217,6.983
		c-0.231,0.293-0.725,0.281-0.959-0.128c-0.396-0.686-0.923-1.302-1.451-2.165C116.401,61.367,118.911,59.187,121.616,57.319z"/>
	<path fill="#FFFFFF" d="M144.205,141.416c0.348-0.465,0.803,0.262,1.253,0.553c0.946,0.605-0.655,1.381-1.06,1.832
		c-2.434,2.726-4.995,5.398-7.393,8.391c-0.272,0.338-0.546-1.061-1.479-0.852c0.447-1.021,1.671-1.801,2.096-2.806
		C139.74,146.133,142.213,144.088,144.205,141.416z"/>
	<path fill="#FFFFFF" d="M133.999,100.203c0.548,0.638,1.484,1.366,1.901,2.059l-6.637,7.438c-0.246-0.819-1.188-0.8-1.638-1.298
		L133.999,100.203z"/>
	<path fill="#FFFFFF" d="M62.758,48.376c0.202-0.251,0.353-0.708,0.549-0.448c0.403,0.536,0.992,0.827,1.68,1.488
		c-3.203,2.775-6.434,5.688-9.472,8.701c-0.348,0.345-0.751-0.477-1.204-0.868C56.887,54.087,60.229,51.54,62.758,48.376z"/>
	<path fill="#FFFFFF" d="M47.429,16.012c0.286-0.25,1.068,0.88,1.785,1.555c-2.581,1.995-4.855,4.623-6.917,7.179l-1.635-1.635
		C42.686,20.621,44.896,18.237,47.429,16.012z"/>
	<path fill="#FFFFFF" d="M126.053,109.672c0.656,0.13,1.078,0.934,1.925,1.313c-2.032,2.145-3.788,4.614-5.794,6.782
		c-0.765-0.174-1.427-0.918-2.123-1.465C121.82,113.983,124.115,112.077,126.053,109.672z"/>
	<path fill="#B0B0B0" d="M38.315,121.506c3.057,2.971,6.019,6.279,8.822,9.98c-4.067-2.359-7.116-5.432-10.28-8.447
		C36.501,122.7,37.815,122.34,38.315,121.506z"/>
	<path fill="#FFFFFF" d="M70.1,40.496c0.338,0.218,1.316,1.18,1.798,1.79c-1.853,1.731-3.531,3.64-5.421,5.456
		c-0.28,0.267-1.076-0.825-1.759-1.526l5.113-5.18C69.903,40.963,70.011,40.675,70.1,40.496z"/>
	<path fill="#FFFFFF" d="M159.849,123.043c0.169-0.209,0.726,0.623,1.272,1.141c-1.934,2.859-4.4,5.436-6.625,8.17
		c-0.443-0.13-0.686-0.632-1.396-0.863C155.389,128.781,157.553,125.889,159.849,123.043z"/>
	<path fill="#FFFFFF" d="M146.391,111.806c0.15-0.202,0.82,0.681,1.35,1.244c-2.043,2.612-4.339,5.205-6.599,7.778
		c-0.356-0.128-0.69-0.59-1.177-1.122C142.014,117.164,144.309,114.631,146.391,111.806z"/>
	<path fill="#010101" d="M95.6,98.491c1.541,0.621,2.666,1.869,3.609,3.213c0.904,1.285,2.386,2.39,2.215,4.186
		c-0.098,0.989-1.076,0.823-1.271,0.581c-1.618-2.025-3.184-4.149-4.705-6.794c-0.043-0.075,0.002-0.607-0.316-0.95
		C95.191,98.696,95.502,98.451,95.6,98.491z"/>
	<path fill="#FFFFFF" d="M49.201,34.907c0.474,0.188,0.826,0.693,1.252,1.102l-8.628,8.708c-0.216,0.217-0.659-0.396-0.95-0.663
		C43.807,41.247,46.262,37.805,49.201,34.907z"/>
	<path fill="#FFFFFF" d="M151.859,132.899c0.229-0.269,1.389,0.814,1.158,1.079c-2.174,2.514-4.32,4.836-6.4,7.473
		c-0.162,0.205-0.655-0.644-1.281-0.879L151.859,132.899z"/>
	<path fill="#FFFFFF" d="M57.119,26.479c0.458-0.513,0.886,0.375,1.194,0.708c0.205,0.22,0.419,0.448,0.021,0.734
		c-2.495,1.794-4.302,4.141-6.25,6.336c-0.307,0.346-1.448-0.733-1.211-1.007C52.949,30.854,55.109,28.724,57.119,26.479z"/>
	<path fill="#FFFFFF" d="M70.316,59.151c0.236-0.397,0.466,0.027,0.609,0.166c1.089,1.054,2.327,1.823,3.342,2.883
		c0.566,0.591-0.415,0.955-0.586,1.154c-0.272,0.317-1.054,1.125-1.424,1.506l-3.613-3.854
		C68.965,60.656,70.059,59.581,70.316,59.151z"/>
	<path fill="#FFFFFF" d="M52.4,58.978c0.39-0.327,1.006,0.395,1.322,0.666c-1.88,1.494-3.223,3.627-4.952,5.019
		c-0.598,0.48-1.228,0.722-1.585,0.752c-0.652,0.055-1.248-0.441-1.438-0.992C48.211,62.837,50.26,60.78,52.4,58.978z"/>
	<path fill="#FFFFFF" d="M138.615,121.452c0.254-0.265,1.418,0.659,0.886,1.243c-1.999,2.195-3.761,4.566-5.69,6.762
		c-0.381-0.415-1.501-1.152-1.159-1.533L138.615,121.452z"/>
	<path fill="#010101" d="M97.224,96.63c0.092-0.188-0.146-0.874,0.419-0.646c1.348,0.547,2.322,1.336,3.059,2.469
		c0.742,1.142,2.234,2.116,1.932,3.987c-0.068,0.429-0.789,0.571-1.076,0.271c-1.588-1.664-3.029-3.761-4.455-5.745
		C97.078,96.933,97.186,96.712,97.224,96.63z"/>
	<path fill="#FFFFFF" d="M29.621,35.825c0.235-0.268,0.656,0.798,1.558,1.048c-2.98,2.244-5.76,4.732-7.926,7.547
		c-0.455-0.288-0.771-0.603-0.959-0.9C24.787,41.031,27.272,38.493,29.621,35.825z"/>
	<path fill="#010101" d="M86.963,58.143c2.282,0.282,3.644,2.138,4.85,3.521c0.271,0.31,0.248,1.2-0.059,1.727
		c-0.354,0.611-0.968-0.032-1.018-0.069c-1.672-1.188-2.769-2.451-3.955-3.487C86.472,59.566,86.855,58.78,86.963,58.143z"/>
	<path fill="#010101" d="M99.652,93.536c0.082-0.161-0.138-0.933,0.423-0.612c0.647,0.369,1.496,0.339,1.972,1.084
		c0.588,0.924,1.488,1.624,2.013,2.593c0.253,0.467,0.278,1.274-0.126,1.814c-0.219,0.293-0.889,0.32-1.161-0.052l-3.29-4.373
		C99.422,93.908,99.61,93.622,99.652,93.536z"/>
	<path fill="#FFFFFF" d="M111.221,102.657c1.617,0.99,3.07,2.188,4.451,3.373c-0.244,0.605-0.669,1.115-1.33,1.68
		c-1.424-1.043-2.732-2.491-4.023-3.768C110.756,103.551,110.807,102.909,111.221,102.657z"/>
	<path fill="#010101" d="M83.215,75.398c0.573-0.203,1.158,0.114,1.513,0.808c0.29,0.57,1.866,0.648,1.755,1.623
		c-0.063,0.55-0.373,0.949-0.532,1.313c-0.454-0.131-1.896-0.481-2.314-0.714c-0.835-0.466-1.376-1.558-1.001-2.307
		C82.775,75.839,82.9,75.51,83.215,75.398z"/>
	<path fill="#010101" d="M102.637,90.27c1.227,0.734,2.611,1.664,3.504,2.757c0.169,0.207,0.219,0.585,0.219,0.855
		c0,0.244-0.42,1.034-0.539,1.077c-0.559,0.201-1.181-0.194-1.531-0.759l-1.879-2.573C102.215,91.381,102.24,90.672,102.637,90.27z"
		/>
	<path fill="#FFFFFF" d="M39.339,45.801c0.139-0.146,0.693,0.391,0.424,0.702c-2.075,2.386-4.629,4.353-7.349,6.084
		c-0.361,0.229-0.762-0.189-0.771-0.475c2.348-0.595,3.603-2.545,5.252-3.846C37.555,47.339,38.541,46.643,39.339,45.801z"/>
	<path fill="#010101" d="M89.755,67.537c0.847-0.44,1.458,0.373,1.72,1c0.615,0.014,0.673,0.548,0.692,0.882
		c0.027,0.47-0.155,1.241-0.73,1.297c-1.359,0.129-2.242-1.183-2.349-2.367C89.562,68.222,89.5,67.669,89.755,67.537z"/>
	<path fill="#010101" d="M85.717,74.409c0.083-0.211,0.097-0.763,0.111-0.88c1.34-0.363,1.798,0.85,2.348,1.464
		c0.507,0.566,0.308,1.506-0.324,2.042c-0.564-0.389-1.371-0.649-1.821-1.063C85.574,75.554,85.528,74.896,85.717,74.409z"/>
	<path fill="#010101" d="M93.158,66.5c0.039-0.114-0.236-0.763,0.302-0.542c0.485,0.197,1.104,0.277,1.415,0.856
		c0.282,0.529,0.91,1.092,0.835,1.731c-0.054,0.458-0.438,0.851-1.026,0.773c-1.026-0.136-1.93-1.438-1.905-2.242
		C92.789,66.786,93.117,66.628,93.158,66.5z"/>
	<path fill="#010101" d="M87.625,70.938c-0.429-0.892,0.694-0.563,0.854-0.449c0.834,0.601,1.833,1.625,1.246,3.035
		c-1.235,0.223-2.442-0.821-2.649-1.835C86.991,71.271,87.311,71.012,87.625,70.938z"/>
	<path fill="#010101" d="M108.209,86.628c0.574-0.232,1.373,0.544,1.738,1.345c0.198,0.434,0.32,1.244-0.223,2.037
		c-0.1,0.143-0.711-0.021-1.07-0.01l-1.25-2.567C107.596,87.242,107.947,86.733,108.209,86.628z"/>
	<path fill="#010101" d="M80.76,78.767c0.061-0.17,0.175-0.706,0.219-0.883h1.144c0.142,0.794,1.173,1.015,1.138,1.708
		c-0.025,0.496-0.201,1.729-0.967,1.292c-0.679-0.389-1.911-0.677-1.724-1.823C80.577,79.031,80.733,78.839,80.76,78.767z"/>
	<path fill="#010101" d="M78.321,78.381c1.382,0.582,2.473,1.996,2.23,3.711c-0.116,0.821-0.915-0.204-1.127-0.513
		c-0.421-0.606-1.222-0.977-1.274-1.785C78.12,79.342,77.97,78.781,78.321,78.381z"/>
	<path fill="#010101" d="M106.113,89.571c0.205-0.384,0.703-0.102,0.904,0.025c0.6,0.381,1.053,0.959,1.098,1.566
		c-0.682,0.304,0.211,0.871-0.643,0.959c-0.658,0.07-0.93-0.51-1.231-0.871C105.813,90.734,105.867,90.037,106.113,89.571z"/>
</g>
</svg>
